Results
version=1
nRows=22
nColumns=24
inDegrees=yes
endheader
time	pelvis_tilt	pelvis_list	pelvis_rotation	pelvis_tx	pelvis_ty	pelvis_tz	hip_flexion_r	hip_adduction_r	hip_rotation_r	knee_angle_r	ankle_angle_r	subtalar_angle_r	mtp_angle_r	hip_flexion_l	hip_adduction_l	hip_rotation_l	knee_angle_l	ankle_angle_l	subtalar_angle_l	mtp_angle_l	lumbar_extension	lumbar_bending	lumbar_rotation
      0.75900000	     -2.60592800	      4.27792209	     11.02955349	      0.02659988	      0.98113396	      0.22486158	     35.11688161	     -9.19032609	    -10.62059721	     -6.88042721	      9.09603723	     -0.38597309	     12.12622599	    -16.89981045	      4.90119590	     12.68220911	     -9.64817417	     16.14160685	     -1.68923806	      2.55735685	     -1.03454547	     -7.50997258	    -10.13426112
      0.76316667	     -2.60217811	      4.23624843	     11.24942017	      0.03296691	      0.98052239	      0.22527970	     35.05593694	     -9.21365328	    -10.39780917	     -7.48921085	      9.09162908	     -0.92744564	     12.13752981	    -17.09657970	      4.70022624	     12.77043808	     -9.97195966	     15.98178209	     -1.58565407	      2.58299195	     -0.94456041	     -7.49239238	    -10.20696936
      0.76733333	     -2.60038859	      4.17598780	     11.47339487	      0.03939040	      0.97993971	      0.22572934	     34.96409578	     -9.20439303	    -10.14816194	     -8.03886532	      8.95481019	     -1.62112953	     12.15053191	    -17.28042080	      4.47582102	     12.85766432	    -10.30644475	     15.77620396	     -1.51647150	      2.63250979	     -0.84750878	     -7.44947155	    -10.40510730
      0.77150000	     -2.60220131	      4.10453526	     11.69236009	      0.04587365	      0.97937963	      0.22620912	     34.86776722	     -9.17567704	     -9.93071031	     -8.57738413	      8.77034433	     -2.28690345	     12.16735909	    -17.45483912	      4.23922269	     12.94831842	    -10.64643593	     15.54320949	     -1.45067687	      2.70074729	     -0.73387163	     -7.40115326	    -10.58828723
      0.77566667	     -2.60762703	      4.02328949	     11.90492628	      0.05240768	      0.97883661	      0.22671516	     34.76567315	     -9.12720957	     -9.72956539	     -9.09369893	      8.50842825	     -2.96290611	     12.19229166	    -17.61447933	      3.99292789	     13.01447337	    -11.00218239	     15.28438023	     -1.39404980	      2.79670773	     -0.61131269	     -7.34039429	    -10.77069176
      0.77983333	     -2.62113686	      3.93118669	     12.11180388	      0.05899091	      0.97831440	      0.22725765	     34.66451720	     -9.05946109	     -9.55430664	     -9.58931563	      8.17921952	     -3.62645915	     12.22818216	    -17.75348155	      3.73691039	     13.07113767	    -11.37400201	     15.00283528	     -1.34529374	      2.92188275	     -0.46910114	     -7.27689381	    -10.94075518
      0.78400000	     -2.62682466	      3.82903990	     12.30855733	      0.06562158	      0.97782326	      0.22783021	     34.55147827	     -8.96990327	     -9.40097720	    -10.06860642	      7.78802420	     -4.28970825	     12.27828690	    -17.89197347	      3.46937232	     13.10874000	    -11.75565072	     14.69531042	     -1.29893233	      3.08313455	     -0.32829152	     -7.19876220	    -11.10168390
      0.78816667	     -2.63226192	      3.73808471	     12.49927764	      0.07227143	      0.97736029	      0.22844868	     34.43594675	     -8.87854633	     -9.23667358	    -10.53456692	      7.35297569	     -4.99080122	     12.40838220	    -18.02023015	      3.21267479	     13.14074475	    -12.15396824	     14.34183497	     -1.22312703	      3.45510044	     -0.19345682	     -7.16248930	    -11.24552312
      0.79233333	     -2.64728410	      3.59287041	     12.68081560	      0.07899742	      0.97691128	      0.22907052	     34.32643373	     -8.73207961	     -9.15135243	    -10.96784104	      6.80878118	     -5.61110925	     12.49321873	    -18.11417416	      2.90679136	     13.13153640	    -12.58023724	     13.98560360	     -1.22267547	      3.70055768	     -0.01074104	     -7.03279524	    -11.38299695
      0.79650000	     -2.66330871	      3.45699734	     12.84941322	      0.08575397	      0.97648686	      0.22972687	     34.22495486	     -8.58378608	     -9.06113398	    -11.40161544	      6.20214090	     -6.25926775	     12.59643376	    -18.20457439	      2.61265679	     13.11872480	    -13.00635117	     13.57087141	     -1.19231265	      3.98647759	      0.17159294	     -6.93057018	    -11.50539125
      0.80066667	     -2.67417584	      3.31505010	     12.99992862	      0.09253803	      0.97609230	      0.23044168	     34.12449595	     -8.41250346	     -8.96539011	    -11.82971572	      5.52756184	     -6.92147604	     12.73389872	    -18.28811329	      2.31464266	     13.08362161	    -13.44597616	     13.12247784	     -1.16160556	      4.35724543	      0.35305637	     -6.82618446	    -11.60777789
      0.80483333	     -2.68830589	      3.14879906	     13.13754005	      0.09936875	      0.97571788	      0.23116768	     34.03685557	     -8.21277030	     -8.89929967	    -12.25727737	      4.80250992	     -7.54047852	     12.87700324	    -18.35261166	      1.99776410	     13.02414069	    -13.90331685	     12.64918667	     -1.14699000	      4.74780823	      0.55841773	     -6.68644893	    -11.69574750
      0.80900000	     -2.67581507	      2.97004315	     13.24997486	      0.10624318	      0.97539425	      0.23193994	     33.94105291	     -7.98731791	     -8.87405674	    -12.70790029	      4.04463407	     -8.07634554	     14.42903203	    -18.42772319	      1.65877428	     12.85482083	    -14.36696465	     12.07460132	     -0.99073763	      8.83601629	      0.74085669	     -6.52065320	    -11.68245610
      0.81316667	     -2.71469954	      2.78459141	     13.34953831	      0.11313402	      0.97503406	      0.23271203	     33.91928276	     -7.75789895	     -8.82759438	    -13.18646860	      3.27090390	     -8.57942981	     14.42670312	    -18.45160703	      1.34896934	     12.81927804	    -14.83566850	     11.50231713	     -1.10950261	      8.88654969	      0.99029229	     -6.35010531	    -11.79509352
      0.81733333	     -2.71318379	      2.60603602	     13.43162239	      0.12000686	      0.97476150	      0.23356244	     33.85738648	     -7.50638154	     -8.72032722	    -13.65619151	      2.45732268	     -9.19972715	     14.44734079	    -18.48377714	      1.03594375	     12.68705527	    -15.36111148	     10.90976685	     -1.14214365	      9.02998304	      1.18242867	     -6.22015593	    -11.83787896
      0.82150000	     -2.71496943	      2.39582583	     13.48860820	      0.12692833	      0.97450103	      0.23443325	     33.82326065	     -7.21714291	     -8.63979590	    -14.16017087	      1.67660490	     -9.72116242	     14.47938781	    -18.49623243	      0.70043206	     12.51729601	    -15.90225477	     10.29175774	     -1.16695938	      9.22299080	      1.40350111	     -6.02426596	    -11.84858581
      0.82566667	     -2.68501328	      2.17223348	     13.51964888	      0.13385734	      0.97430169	      0.23535815	     33.77937859	     -6.89750923	     -8.56050954	    -14.70031034	      0.88578630	    -10.19778760	     15.04773063	    -18.51586943	      0.34242624	     12.24242684	    -16.47009516	      9.62054395	     -1.04206257	     12.10964586	      1.58396063	     -5.80281575	    -11.76273351
      0.82983333	     -2.69733587	      1.95638475	     13.52716228	      0.14079851	      0.97407449	      0.23629920	     33.80737062	     -6.58186838	     -8.43505794	    -15.29777953	      0.19509410	    -10.64689348	     15.04095795	    -18.49423838	      0.02951212	     12.06792986	    -17.04083578	      8.86996831	     -1.20982980	     12.18772952	      1.82088472	     -5.60623120	    -11.80916065
      0.83400000	     -2.67372802	      1.72518589	     13.51174212	      0.14774545	      0.97392025	      0.23728440	     33.81452802	     -6.23252208	     -8.30359702	    -15.92327274	     -0.47775628	    -11.07091550	     15.03648854	    -18.48203717	     -0.30493009	     11.81277941	    -17.65310367	      8.12021628	     -1.26459437	     12.34654200	      2.01924727	     -5.37809363	    -11.76469877
      0.83816667	     -2.64163004	      1.48034014	     13.46844343	      0.15470657	      0.97380015	      0.23832300	     33.83407472	     -5.85244832	     -8.14588045	    -16.58648310	     -1.10550038	    -11.48270117	     15.03030236	    -18.46050899	     -0.64735799	     11.51034146	    -18.28629898	      7.32777014	     -1.31572408	     12.60381318	      2.21002530	     -5.12921100	    -11.68884266
      0.84233333	     -2.59114613	      1.24402198	     13.40043402	      0.16165349	      0.97373152	      0.23939169	     33.85548504	     -5.46615915	     -7.96551568	    -17.29564947	     -1.70122671	    -11.87539587	     15.01137880	    -18.44123201	     -0.97569816	     11.18000634	    -18.94587856	      6.46447752	     -1.34373709	     13.08262070	      2.37181106	     -4.88462883	    -11.57586190
      0.84650000	     -2.53611560	      0.96269825	     13.30867516	      0.16864221	      0.97367835	      0.24048013	     33.88771905	     -5.02729273	     -7.80252549	    -18.03348935	     -2.12270528	    -12.14035507	     14.98063258	    -18.39603836	     -1.34139849	     10.79079062	    -19.65103509	      5.60469458	     -1.46282146	     13.52634660	      2.56222261	     -4.57303722	    -11.48397106
